HIERARCHY
ROOT Hips
{
  OFFSET -4.35178 90.3298 111.633
  CHANNELS 6 Xposition Yposition Zposition Zrotation Xrotation Yrotation
  JOINT LeftUpLeg
  {
    OFFSET 0.103456 1.85784 10.5485
    CHANNELS 6 Xposition Yposition Zposition Zrotation Xrotation Yrotation
    JOINT LeftLeg
    {
      OFFSET 43.5 -4.2e-05 0
      CHANNELS 6 Xposition Yposition Zposition Zrotation Xrotation Yrotation
      JOINT LeftFoot
      {
        OFFSET 42.3722 1.9e-05 0
        CHANNELS 6 Xposition Yposition Zposition Zrotation Xrotation Yrotation
        JOINT LeftToe
        {
          OFFSET 17.3 0 0
          CHANNELS 6 Xposition Yposition Zposition Zrotation Xrotation Yrotation
          End Site
          {
            OFFSET 0 0 0
          }
        }
      }
    }
  }
  JOINT RightUpLeg
  {
    OFFSET 0.103456 1.85782 -10.5485
    CHANNELS 6 Xposition Yposition Zposition Zrotation Xrotation Yrotation
    JOINT RightLeg
    {
      OFFSET 43.5 -2.7e-05 0
      CHANNELS 6 Xposition Yposition Zposition Zrotation Xrotation Yrotation
      JOINT RightFoot
      {
        OFFSET 42.3723 0 0
        CHANNELS 6 Xposition Yposition Zposition Zrotation Xrotation Yrotation
        JOINT RightToe
        {
          OFFSET 17.3 0 1.7e-05
          CHANNELS 6 Xposition Yposition Zposition Zrotation Xrotation Yrotation
          End Site
          {
            OFFSET 0 0 0
          }
        }
      }
    }
  }
  JOINT Spine
  {
    OFFSET 6.90197 -2.60373 0
    CHANNELS 6 Xposition Yposition Zposition Zrotation Xrotation Yrotation
    JOINT Spine1
    {
      OFFSET 12.5881 0 0
      CHANNELS 6 Xposition Yposition Zposition Zrotation Xrotation Yrotation
      JOINT Spine2
      {
        OFFSET 12.3432 -1.8e-05 0
        CHANNELS 6 Xposition Yposition Zposition Zrotation Xrotation Yrotation
        JOINT Neck
        {
          OFFSET 25.8329 2.3e-05 0
          CHANNELS 6 Xposition Yposition Zposition Zrotation Xrotation Yrotation
          JOINT Head
          {
            OFFSET 11.7666 0 0
            CHANNELS 6 Xposition Yposition Zposition Zrotation Xrotation Yrotation
            End Site
            {
              OFFSET 0 0 0
            }
          }
        }
        JOINT LeftShoulder
        {
          OFFSET 19.7459 -1.48035 6.0001
          CHANNELS 6 Xposition Yposition Zposition Zrotation Xrotation Yrotation
          JOINT LeftArm
          {
            OFFSET 11.2841 1.8e-05 -2e-05
            CHANNELS 6 Xposition Yposition Zposition Zrotation Xrotation Yrotation
            JOINT LeftForeArm
            {
              OFFSET 33 -1.3e-05 1.9e-05
              CHANNELS 6 Xposition Yposition Zposition Zrotation Xrotation Yrotation
              JOINT LeftHand
              {
                OFFSET 25.2 3.2e-05 1.1e-05
                CHANNELS 6 Xposition Yposition Zposition Zrotation Xrotation Yrotation
                End Site
                {
                  OFFSET 0 0 0
                }
              }
            }
          }
        }
        JOINT RightShoulder
        {
          OFFSET 19.7461 -1.48036 -6.00008
          CHANNELS 6 Xposition Yposition Zposition Zrotation Xrotation Yrotation
          JOINT RightArm
          {
            OFFSET 11.2841 0 0
            CHANNELS 6 Xposition Yposition Zposition Zrotation Xrotation Yrotation
            JOINT RightForeArm
            {
              OFFSET 33.0001 1.6e-05 0
              CHANNELS 6 Xposition Yposition Zposition Zrotation Xrotation Yrotation
              JOINT RightHand
              {
                OFFSET 25.1998 0.000123 0.000432
                CHANNELS 6 Xposition Yposition Zposition Zrotation Xrotation Yrotation
                End Site
                {
                  OFFSET 0 0 0
                }
              }
            }
          }
        }
      }
    }
  }
}
MOTION
Frames:	8
Frame Time:	0.0333333
-83.1579 89.2061 -1.14202 -85.9344 2.32595 -177.291 0.103456 1.85784 10.5485 8.50132 -6.35212 -179.837 43.5 -4.2e-05 1e-05 -0.764001 -10.559 -3.49475 42.3722 1.9e-05 0 73.595 -15.1499 6.15387 17.3 3.55271e-15 3e-06 21.4546 -1e-06 0.003093 0.103456 1.85782 -10.5485 3.8581 10.2089 175.891 43.5 -2.7e-05 4e-06 -11.8996 12.0236 1.35125 42.3723 0 1e-05 84.3944 20.5196 -18.5502 17.3 -6e-06 1.7e-05 21.4546 -1.9e-05 -0.003116 6.90197 -2.60373 -3e-06 8.24505 -0.694101 0.100538 12.5881 1e-05 8e-06 6.49306 -1.28649 0.335767 12.3432 -1.8e-05 -5e-06 6.19298 -1.16755 0.428262 25.8329 2.3e-05 7e-06 6.91271 -8.02843 0.293879 11.7666 -8e-06 -6e-06 3.22168 -17.6975 13.6516 19.7459 -1.48035 6.0001 176.916 5.20829 -88.2791 11.2841 1.8e-05 -2e-05 25.8546 -29.3858 46.2522 33 -1.3e-05 1.9e-05 -24.3203 3.41899 -20.2962 25.2 3.2e-05 1.1e-05 -4.3095 25.7075 3.20004 19.7461 -1.48036 -6.00008 -171.867 -9.94166 78.7648 11.2841 2.84217e-14 -1e-06 -0.217254 6.36438 -14.6524 33.0001 1.6e-05 -1e-06 -40.2643 -11.0673 26.4742 25.1998 0.000123 0.000432 1.20995 -17.8597 7.42703 
-83.4417 89.2557 -1.14876 -85.959 2.87732 -177.371 0.103456 1.85784 10.5485 8.39904 -6.21068 -179.816 43.5 -4.2e-05 1e-05 -0.716806 -10.5093 -3.49419 42.3722 1.9e-05 0 73.6616 -15.2447 6.57113 17.3 0 3e-06 21.4546 -1e-06 0.003093 0.103456 1.85782 -10.5485 2.61359 10.1726 176.107 43.5 -2.7e-05 4e-06 -13.7048 11.7888 1.26256 42.3723 0 1e-05 84.4752 20.6044 -18.1214 17.3 -6e-06 1.7e-05 21.4546 -1.9e-05 -0.003116 6.90197 -2.60373 -3e-06 8.45847 -0.765171 0.0877888 12.5881 1e-05 8e-06 6.92188 -1.42466 0.324821 12.3432 -1.8e-05 -5e-06 6.62408 -1.29959 0.426398 25.8329 2.3e-05 7e-06 6.69995 -8.16337 0.722222 11.7666 -8e-06 -6e-06 3.93031 -18.2057 13.9772 19.7459 -1.48035 6.0001 176.929 5.80547 -86.2415 11.2841 1.8e-05 -2e-05 24.8535 -29.351 49.9051 33 -1.3e-05 1.9e-05 -24.2489 3.99186 -20.0089 25.2 3.2e-05 1.1e-05 -4.86494 25.3974 3.80153 19.7461 -1.48036 -6.00008 -171.382 -10.5988 77.1191 11.2841 0 -1e-06 -2.02319 4.66362 -16.1672 33.0001 1.6e-05 -1e-06 -43.8114 -12.6791 26.1388 25.1998 0.000123 0.000432 0.0572993 -18.7424 8.47346 
-83.8166 89.279 -1.11878 -86.0643 3.8091 -177.508 0.103456 1.85784 10.5485 8.02859 -5.78993 -179.754 43.5 -4.2e-05 1e-05 -1.05816 -10.4928 -3.49408 42.3722 1.9e-05 0 73.9206 -15.3786 7.06846 17.3 0 3e-06 21.4546 -1e-06 0.003093 0.103456 1.85782 -10.5485 0.801913 10.2345 176.491 43.5 -2.7e-05 4e-06 -16.1773 11.4282 1.12648 42.3723 0 1e-05 84.3937 20.4931 -17.5195 17.3 -6e-06 1.7e-05 21.4546 -1.9e-05 -0.003116 6.90197 -2.60373 -3e-06 8.67391 -0.882312 0.119401 12.5881 1e-05 8e-06 7.35645 -1.64732 0.410488 12.3432 -1.8e-05 -5e-06 7.06196 -1.50986 0.526181 25.8329 2.3e-05 7e-06 6.32586 -8.38495 1.1494 11.7666 -8e-06 -6e-06 4.19819 -18.6718 13.7718 19.7459 -1.48035 6.0001 177.398 6.31949 -83.9363 11.2841 1.8e-05 -2e-05 21.6073 -28.0856 52.4411 33 -1.3e-05 1.9e-05 -24.4264 4.29094 -19.1272 25.2 3.2e-05 1.1e-05 -5.33859 25.1734 4.30515 19.7461 -1.48036 -6.00008 -171.32 -11.379 75.1377 11.2841 -2.84217e-14 -1e-06 -4.16668 0.705298 -15.6945 33.0001 1.6e-05 -1e-06 -49.4666 -12.3122 24.6916 25.1998 0.000123 0.000432 0.264165 -19.0518 9.18632 
-84.353 89.3823 -0.970881 -86.0736 5.35568 -177.738 0.103456 1.85784 10.5485 7.72426 -5.10374 -179.645 43.5 -4.2e-05 1e-05 -1.42706 -10.6335 -3.45879 42.3722 1.9e-05 0 74.182 -15.5467 7.82427 17.3 -3.55271e-15 3e-06 21.4546 -1e-06 0.003093 0.103456 1.85782 -10.5485 -2.10724 9.04464 176.949 43.5 -2.7e-05 4e-06 -20.415 10.8655 1.31413 42.3723 0 1e-05 83.7053 19.7479 -16.1359 17.3 -6e-06 1.7e-05 21.4546 -1.9e-05 -0.003116 6.90197 -2.60373 -3e-06 8.93341 -0.847354 0.00826337 12.5881 1e-05 8e-06 7.87362 -1.58952 0.187379 12.3432 -1.8e-05 -5e-06 7.57905 -1.45816 0.300373 25.8329 2.3e-05 7e-06 6.41031 -7.48001 0.841363 11.7666 -8e-06 -6e-06 4.43185 -17.8253 14.6718 19.7459 -1.48035 6.0001 178.2 8.36364 -82.0451 11.2841 1.8e-05 -2e-05 17.2508 -26.5137 53.8431 33 -1.3e-05 1.9e-05 -24.9627 4.90482 -18.0091 25.2 3.2e-05 1.1e-05 -5.64452 25.6409 4.32382 19.7461 -1.48036 -6.00008 -170.95 -12.0869 74.1238 11.2841 0 -1e-06 -7.09384 -0.615281 -18.6226 33.0001 1.6e-05 -1e-06 -52.1103 -13.4601 23.9811 25.1998 0.000123 0.000432 -1.10036 -19.875 10.0147 
-84.8703 89.4593 -0.702635 -86.1964 7.16113 -178.006 0.103456 1.85784 10.5485 7.59675 -4.42689 -179.433 43.5 -4.2e-05 1e-05 -1.37813 -11.0816 -3.40874 42.3722 1.9e-05 1.77636e-15 74.3271 -15.614 8.63829 17.3 0 3e-06 21.4546 -1e-06 0.003093 0.103456 1.85782 -10.5485 -4.5396 8.86013 177.565 43.5 -2.7e-05 4e-06 -23.5188 10.1349 1.1857 42.3723 0 1e-05 82.8244 19.5034 -15.0573 17.3 -6e-06 1.7e-05 21.4546 -1.9e-05 -0.003116 6.90197 -2.60373 -3e-06 9.08999 -0.787176 -0.138421 12.5881 1e-05 8e-06 8.18408 -1.49108 -0.11273 12.3432 -1.8e-05 -5e-06 7.889 -1.37373 -0.00504213 25.8329 2.3e-05 7e-06 7.00439 -6.30388 0.375481 11.7666 -8e-06 -6e-06 4.38339 -16.7587 15.6992 19.7459 -1.48035 6.0001 178.674 10.4979 -80.8051 11.2841 1.8e-05 -2e-05 13.0277 -25.5062 55.8377 33 -1.3e-05 1.9e-05 -25.2874 6.62808 -17.1038 25.2 3.2e-05 1.1e-05 -7.08404 25.88 5.11579 19.7461 -1.48036 -6.00008 -170.54 -12.9244 73.2486 11.2841 -2.84217e-14 -1e-06 -10.2329 -2.08422 -21.9943 33.0001 1.6e-05 -1e-06 -53.9134 -14.2166 23.2019 25.1998 0.000123 0.000432 -2.72003 -20.5476 10.7066 
-85.441 89.4981 -0.324537 -86.4921 9.14878 -178.29 0.103456 1.85784 10.5485 7.3736 -4.05083 -179.1 43.5 -4.2e-05 1e-05 -1.21229 -11.6661 -3.3073 42.3722 1.9e-05 0 74.5599 -16.0269 9.7501 17.3 -3.55271e-15 3e-06 21.4546 -1e-06 0.003093 0.103456 1.85782 -10.5485 -6.9383 9.06619 178.306 43.5 -2.7e-05 4e-06 -26.0515 9.45079 1.04372 42.3723 1.42109e-14 1e-05 82.3275 20.6076 -14.1437 17.3 -6e-06 1.7e-05 21.4546 -1.9e-05 -0.003116 6.90197 -2.60373 -3e-06 9.13528 -0.728861 -0.265778 12.5881 1e-05 8e-06 8.27232 -1.39608 -0.375886 12.3432 -1.8e-05 -5e-06 7.9766 -1.29387 -0.273515 25.8329 2.3e-05 7e-06 7.98608 -5.29602 -0.171479 11.7666 -8e-06 -6e-06 3.88344 -15.8646 16.3684 19.7459 -1.48035 6.0001 178.991 12.5017 -80.1136 11.2841 1.8e-05 -2e-05 8.20944 -24.2798 57.4952 33 -1.3e-05 1.9e-05 -26.4945 8.23485 -15.7768 25.2 3.2e-05 1.1e-05 -9.16867 26.2597 5.53585 19.7461 -1.48036 -6.00008 -170.198 -13.7615 72.5404 11.2841 2.84217e-14 -1e-06 -13.5587 -3.96984 -25.3647 33.0001 1.6e-05 -1e-06 -55.1574 -14.6773 22.4408 25.1998 0.000123 0.000432 -3.96328 -21.2989 11.4882 
-85.9257 89.4871 0.15727 -86.6396 11.356 -178.612 0.103456 1.85784 10.5485 7.45275 -3.51141 -178.664 43.5 -4.2e-05 1e-05 -0.977571 -12.3034 -3.24511 42.3722 1.9e-05 0 74.7901 -16.5945 10.7024 17.3 0 3e-06 21.4546 -1e-06 0.003093 0.103456 1.85782 -10.5485 -8.77912 8.48331 178.771 43.5 -2.7e-05 4e-06 -28.2499 9.21223 1.23952 42.3723 0 1e-05 82.6475 21.0705 -13.6232 17.3 -6e-06 1.7e-05 21.4546 -1.9e-05 -0.003116 6.90197 -2.60373 -3e-06 9.12426 -0.639262 -0.363915 12.5881 1e-05 8e-06 8.24772 -1.23454 -0.587135 12.3432 -1.8e-05 -5e-06 7.95005 -1.14611 -0.494412 25.8329 2.3e-05 7e-06 9.14452 -4.5532 -0.69987 11.7666 -8e-06 -6e-06 3.42916 -15.2009 16.6557 19.7459 -1.48035 6.0001 179.036 14.1903 -79.7329 11.2841 1.8e-05 -2e-05 2.9359 -22.7946 58.6763 33 -1.3e-05 1.9e-05 -28.7247 9.85615 -14.2861 25.2 3.2e-05 1.1e-05 -11.5614 27.3541 5.1423 19.7461 -1.48036 -6.00008 -169.885 -14.4978 71.7387 11.2841 -2.84217e-14 -1e-06 -17.3056 -7.44533 -28.3301 33.0001 1.6e-05 -1e-06 -55.2603 -16.1681 22.0545 25.1998 0.000123 0.000432 -6.33199 -23.6882 13.7849 
-86.3154 89.4716 0.724382 -86.6834 13.3808 -178.912 0.103456 1.85784 10.5485 7.67157 -2.95627 -178.179 43.5 -4.2e-05 1e-05 -0.792321 -12.8937 -3.21963 42.3722 1.9e-05 1.77636e-15 74.9703 -17.1401 11.5105 17.3 -3.55271e-15 3e-06 21.4546 -1e-06 0.003093 0.103456 1.85782 -10.5485 -9.703 7.66008 178.695 43.5 -2.7e-05 4e-06 -29.5473 9.56533 1.54336 42.3723 -1.42109e-14 1e-05 83.5532 20.8909 -14.1233 17.3 -6e-06 1.7e-05 21.4546 -1.9e-05 -0.003116 6.90197 -2.60373 -3e-06 9.04241 -0.567858 -0.403589 12.5881 1e-05 8e-06 8.08233 -1.10075 -0.679509 12.3432 -1.8e-05 -5e-06 7.78279 -1.02078 -0.595054 25.8329 2.3e-05 7e-06 10.4218 -4.28671 -1.06901 11.7666 -8e-06 -6e-06 3.14158 -15.0181 16.5282 19.7459 -1.48035 6.0001 178.763 15.4062 -79.8528 11.2841 1.8e-05 -2e-05 -2.33358 -21.5749 59.8152 33 -1.3e-05 1.9e-05 -31.2206 10.0733 -12.4242 25.2 3.2e-05 1.1e-05 -13.4951 29.0534 3.77832 19.7461 -1.48036 -6.00008 -169.977 -14.7953 71.3707 11.2841 2.84217e-14 -1e-06 -20.0702 -10.1813 -31.3051 33.0001 1.6e-05 -1e-06 -57.3663 -14.6828 20.8919 25.1998 0.000123 0.000432 -6.83252 -22.7978 13.0272 
